<?xml version="1.0" encoding="UTF-8" standalone="no"?>
<svg width="28px" height="16px" viewBox="0 0 28 16" version="1.1" xmlns="http://www.w3.org/2000/svg" xmlns:xlink="http://www.w3.org/1999/xlink">
    <!-- Generator: sketchtool 39.1 (31720) - http://www.bohemiancoding.com/sketch -->
    <title>A42FE801-E2CE-424E-AACD-F069931A4C07</title>
    <desc>Created with sketchtool.</desc>
    <defs></defs>
    <g id="Page-1" stroke="none" stroke-width="1" fill="none" fill-rule="evenodd">
        <g id="Desktop:-Super-admin-dashboard" transform="translate(-1163.000000, -140.000000)" fill="#FFFFFF">
            <g id="Group-2" transform="translate(1007.000000, 119.000000)">
                <g id="bicycle" transform="translate(156.000000, 21.000000)">
                    <g id="Capa_1">
                        <path d="M22.0249153,3.87634008 C21.2114416,3.87634008 20.435643,4.04204049 19.7284027,4.3414413 L18.037254,1.02412955 L20.4009153,1.02412955 C20.6573364,1.02412955 20.8659588,1.23504453 20.8659588,1.4942834 C20.8659588,1.75352227 20.6573364,1.96443725 20.4009153,1.96443725 L19.896595,1.96443725 C19.6311396,1.96443725 19.4160458,2.18195951 19.4160458,2.45026721 C19.4160458,2.7185749 19.6311396,2.93609717 19.896595,2.93609717 L20.4009153,2.93609717 C21.187286,2.93609717 21.8270572,2.28929555 21.8270572,1.4942834 C21.8270572,0.699271255 21.1873501,0.0524696356 20.4009153,0.0524696356 L17.2490252,0.0524696356 C17.0814737,0.0524696356 16.925968,0.140761134 16.8387002,0.285408907 C16.7514966,0.43005668 16.7450892,0.610267206 16.821849,0.760874494 L17.6628101,2.4105587 L10.7273318,2.4105587 L10.0276522,1.02412955 L11.1341327,1.02412955 C11.3995881,1.02412955 11.6146819,0.806607287 11.6146819,0.538299595 C11.6146819,0.269991903 11.3995881,0.0524696356 11.1341327,0.0524696356 L7.98217849,0.0524696356 C7.71672311,0.0524696356 7.50162929,0.269991903 7.50162929,0.538299595 C7.50162929,0.806607287 7.71672311,1.02412955 7.98217849,1.02412955 L8.94865904,1.02412955 L9.88259039,2.87468826 L8.78488787,4.59407287 C7.94469565,4.13642105 6.98436613,3.87634008 5.9649611,3.87634008 C2.67589016,3.87634008 0,6.58157085 0,9.90678543 C0,13.232 2.67589016,15.9372955 5.9649611,15.9372955 C9.09224714,15.9372955 11.6649794,13.491498 11.910508,10.3926154 L13.3205675,10.3926154 L12.7728055,12.1945911 L12.4574371,12.1945911 C12.1919817,12.1945911 11.9768879,12.4121134 11.9768879,12.6804211 C11.9768879,12.9487287 12.1919817,13.166251 12.4574371,13.166251 L14.1874142,13.166251 C14.4528696,13.166251 14.6679634,12.9487287 14.6679634,12.6804211 C14.6679634,12.4121134 14.4528696,12.1945911 14.1874142,12.1945911 L13.7782426,12.1945911 L14.4105812,10.114332 L18.409135,3.87452632 L18.8748833,4.78808097 C17.1861053,5.85418623 16.0599542,7.74989474 16.0599542,9.90678543 C16.0599542,13.232 18.7358444,15.9372955 22.0249794,15.9372955 C25.3140503,15.9372955 27.9899405,13.232 27.9899405,9.90678543 C27.9898764,6.58157085 25.3139863,3.87634008 22.0249153,3.87634008 L22.0249153,3.87634008 Z M10.3876156,3.87536842 L13.1862059,9.42095547 L11.9104439,9.42095547 C11.7719176,7.67293927 10.892833,6.13298785 9.59144165,5.12239676 L10.3876156,3.87536842 L10.3876156,3.87536842 Z M10.9452449,9.42095547 L6.84712128,9.42095547 L9.06796339,5.94247773 C10.1065263,6.77519028 10.8120366,8.01451012 10.9452449,9.42095547 L10.9452449,9.42095547 Z M5.9649611,14.9656356 C3.20577574,14.9656356 0.961098398,12.6962915 0.961098398,9.90678543 C0.961098398,7.11734413 3.20577574,4.84793522 5.9649611,4.84793522 C6.79240275,4.84793522 7.57287872,5.05327935 8.26115332,5.4142834 L5.56117162,9.64327126 C5.46576659,9.79271255 5.45878261,9.98296356 5.54297483,10.1391417 C5.62710297,10.2953198 5.78901602,10.3925506 5.9649611,10.3925506 L10.9452449,10.3925506 C10.7025355,12.9549474 8.56197712,14.9656356 5.9649611,14.9656356 L5.9649611,14.9656356 Z M14.0204394,8.93596761 L11.2176842,3.38215385 L17.5794508,3.38215385 L14.0204394,8.93596761 L14.0204394,8.93596761 Z M22.0249153,14.9656356 C19.26573,14.9656356 17.0209886,12.6962267 17.0209886,9.90678543 C17.0209886,8.12553846 17.9371076,6.55753846 19.3172449,5.65590283 L21.5977391,10.1293603 C21.6830847,10.2966802 21.8510847,10.3926802 22.0252998,10.3926802 C22.0994325,10.3926802 22.1746545,10.3752551 22.2450709,10.3385911 C22.4810526,10.2157085 22.5737025,9.92272065 22.4520915,9.68414575 L20.1708924,5.20939271 C20.7447323,4.97710121 21.3699588,4.84787045 22.0249153,4.84787045 C24.7841007,4.84787045 27.028778,7.11727935 27.028778,9.90672065 C27.028778,12.6962915 24.7841007,14.9656356 22.0249153,14.9656356 L22.0249153,14.9656356 Z" id="Shape"></path>
                    </g>
                </g>
            </g>
        </g>
    </g>
</svg>