<?xml version="1.0" encoding="UTF-8" standalone="no"?>
<svg width="24px" height="16px" viewBox="0 0 24 16" version="1.1" xmlns="http://www.w3.org/2000/svg" xmlns:xlink="http://www.w3.org/1999/xlink">
    <!-- Generator: sketchtool 39.1 (31720) - http://www.bohemiancoding.com/sketch -->
    <title>87D37BAE-330B-4E6E-8ADF-ADD33775A841</title>
    <desc>Created with sketchtool.</desc>
    <defs></defs>
    <g id="Page-1" stroke="none" stroke-width="1" fill="none" fill-rule="evenodd">
        <g id="Desktop:-Super-admin-dashboard" transform="translate(-1232.000000, -140.000000)" fill="#FFFFFF">
            <g id="Group-2" transform="translate(1007.000000, 119.000000)">
                <g id="bus" transform="translate(225.000000, 21.000000)">
                    <g id="Capa_1">
                        <g id="Group">
                            <path d="M5.76023358,12.0959414 C5.09635036,12.0959414 4.55626277,12.6380073 4.55626277,13.3043223 C4.55626277,13.9706374 5.09640876,14.5127033 5.76023358,14.5127033 C6.42405839,14.5127033 6.96420438,13.9706374 6.96420438,13.3043223 C6.96420438,12.6380073 6.42405839,12.0959414 5.76023358,12.0959414 L5.76023358,12.0959414 Z M5.76023358,13.6335824 C5.57932847,13.6335824 5.43217518,13.4858315 5.43217518,13.3043223 C5.43217518,13.1228132 5.57938686,12.9750623 5.76023358,12.9750623 C5.94108029,12.9750623 6.08829197,13.1227546 6.08829197,13.3043223 C6.08829197,13.4858901 5.94108029,13.6335824 5.76023358,13.6335824 L5.76023358,13.6335824 Z" id="Shape"></path>
                            <path d="M18.2117372,12.0959414 C17.547854,12.0959414 17.0077664,12.6380073 17.0077664,13.3043223 C17.0077664,13.9706374 17.5479124,14.5127033 18.2117372,14.5127033 C18.875562,14.5127033 19.415708,13.9706374 19.415708,13.3043223 C19.4157664,12.6380073 18.8756204,12.0959414 18.2117372,12.0959414 L18.2117372,12.0959414 Z M18.2117372,13.6335824 C18.0308321,13.6335824 17.8836788,13.4858315 17.8836788,13.3043223 C17.8836788,13.1228132 18.0308905,12.9750623 18.2117372,12.9750623 C18.3925839,12.9750623 18.5397956,13.1227546 18.5397956,13.3043223 C18.5397956,13.4858901 18.3926423,13.6335824 18.2117372,13.6335824 L18.2117372,13.6335824 Z" id="Shape"></path>
                            <path d="M23.4160584,11.1839414 L23.4160584,7.05945788 L23.4160584,2.56750183 C23.4160584,1.16846886 22.2819854,0.0302417582 20.8880584,0.0302417582 L4.48309489,0.0302417582 C2.31766423,0.0302417582 0.555912409,1.79844689 0.555912409,3.97180952 L0.555912409,11.1838828 C0.218627737,11.4381832 0,11.842989 0,12.2980806 L0,12.352 C0,13.1195311 0.622131387,13.7439414 1.38686131,13.7439414 L3.16981022,13.7439414 C3.3790365,14.9895385 4.46061314,15.9415678 5.76023358,15.9415678 C7.05985401,15.9415678 8.14143066,14.9895385 8.35065693,13.7439414 L15.6213723,13.7439414 C15.8305985,14.9895385 16.9121752,15.9415678 18.2117956,15.9415678 C19.5114161,15.9415678 20.5929927,14.9895385 20.802219,13.7439414 L22.5851679,13.7439414 C23.3498978,13.7439414 23.9720292,13.1195311 23.9720292,12.352 L23.9720292,12.2980806 C23.9719708,11.842989 23.7533431,11.4381832 23.4160584,11.1839414 L23.4160584,11.1839414 Z M22.540146,6.61989744 L21.338219,6.61989744 C21.2767299,6.61989744 21.2266861,6.56972894 21.2266861,6.50795604 L21.2266861,3.11900366 C21.2266861,3.05728938 21.2766715,3.00706227 21.338219,3.00706227 L22.540146,3.00706227 L22.540146,6.61989744 L22.540146,6.61989744 Z M0.875912409,12.352 L0.875912409,12.2980806 C0.875912409,12.0150037 1.10510949,11.784674 1.38686131,11.784674 L3.61465693,11.784674 C3.39176642,12.1007473 3.23643796,12.4677509 3.16975182,12.8648205 L1.38686131,12.8648205 C1.10510949,12.8648205 0.875912409,12.6347839 0.875912409,12.352 L0.875912409,12.352 Z M5.76023358,15.0624469 C4.79433577,15.0624469 4.00852555,14.2736996 4.00852555,13.3042637 C4.00852555,12.3348278 4.79433577,11.5461392 5.76023358,11.5461392 C6.72613139,11.5461392 7.51194161,12.3348278 7.51194161,13.3042637 C7.51194161,14.2736996 6.72613139,15.0624469 5.76023358,15.0624469 L5.76023358,15.0624469 Z M15.6213139,12.8648205 L8.35065693,12.8648205 C8.14148905,11.6191648 7.05985401,10.6670183 5.76023358,10.6670183 C5.37150365,10.6670183 5.00262774,10.7528205 4.67030657,10.9055531 L1.43182482,10.9055531 L1.43182482,3.97186813 C1.43182482,2.28319414 2.80064234,0.909421245 4.48309489,0.909421245 L20.8880584,0.909421245 C21.6473577,0.909421245 22.288292,1.42640293 22.4807591,2.128 L21.3381606,2.128 C20.7936934,2.128 20.3507153,2.57254212 20.3507153,3.11906227 L20.3507153,6.50801465 C20.3507153,7.05447619 20.793635,7.49907692 21.3381606,7.49907692 L22.540146,7.49907692 L22.540146,10.9056703 L19.3016642,10.9056703 C18.9694015,10.7529963 18.6004672,10.6671355 18.2117372,10.6671355 C16.9121168,10.6670769 15.8304818,11.6192234 15.6213139,12.8648205 L15.6213139,12.8648205 Z M18.2117372,15.0624469 C17.2458394,15.0624469 16.4600292,14.2736996 16.4600292,13.3042637 C16.4600292,12.3348278 17.2458394,11.5461392 18.2117372,11.5461392 C19.177635,11.5461392 19.9634453,12.3348278 19.9634453,13.3042637 C19.9634453,14.2736996 19.177635,15.0624469 18.2117372,15.0624469 L18.2117372,15.0624469 Z M23.0960584,12.352 C23.0960584,12.6347839 22.8668613,12.8648205 22.5851095,12.8648205 L20.802219,12.8648205 C20.7355328,12.4677509 20.5802044,12.1007473 20.3573139,11.784674 L22.5851095,11.784674 C22.8668613,11.784674 23.0960584,12.0150037 23.0960584,12.2980806 L23.0960584,12.352 L23.0960584,12.352 Z" id="Shape"></path>
                            <path d="M19.0585109,6.50795604 L19.0585109,3.11900366 C19.0585109,2.57254212 18.6155912,2.12794139 18.0710657,2.12794139 L4.58639416,2.12794139 C3.42131387,2.12794139 2.47345985,3.0792674 2.47345985,4.24861538 L2.47345985,6.50795604 C2.47345985,7.05441758 2.91637956,7.49901832 3.46090511,7.49901832 L18.0711241,7.49901832 C18.6155912,7.49901832 19.0585109,7.05441758 19.0585109,6.50795604 L19.0585109,6.50795604 Z M11.2039708,3.00706227 L14.6469489,3.00706227 L14.6469489,6.61989744 L11.2039708,6.61989744 L11.2039708,3.00706227 L11.2039708,3.00706227 Z M10.3280584,6.61989744 L6.88513869,6.61989744 L6.88513869,3.00706227 L10.3280584,3.00706227 L10.3280584,6.61989744 L10.3280584,6.61989744 Z M3.34937226,6.50795604 L3.34937226,4.24861538 C3.34937226,3.56401465 3.90429197,3.00706227 4.58639416,3.00706227 L6.00922628,3.00706227 L6.00922628,6.61989744 L3.46090511,6.61989744 C3.39935766,6.61989744 3.34937226,6.56967033 3.34937226,6.50795604 L3.34937226,6.50795604 Z M18.1825985,6.50795604 C18.1825985,6.56967033 18.1326131,6.61989744 18.0710657,6.61989744 L15.5228029,6.61989744 L15.5228029,3.00706227 L18.0710657,3.00706227 C18.1325547,3.00706227 18.1825985,3.05723077 18.1825985,3.11900366 L18.1825985,6.50795604 L18.1825985,6.50795604 Z" id="Shape"></path>
                            <path d="M21.5788029,10.2220073 C21.8206715,10.2220073 22.0167591,10.0252015 22.0167591,9.78244689 L22.0167591,9.39170696 C22.0167591,9.14895238 21.8206715,8.95214652 21.5788029,8.95214652 C21.3369343,8.95214652 21.1408467,9.14895238 21.1408467,9.39170696 L21.1408467,9.78244689 C21.1408467,10.0252015 21.3369343,10.2220073 21.5788029,10.2220073 L21.5788029,10.2220073 Z" id="Shape"></path>
                        </g>
                    </g>
                </g>
            </g>
        </g>
    </g>
</svg>