<?xml version="1.0" encoding="UTF-8" standalone="no"?>
<svg width="83px" height="82px" viewBox="0 0 83 82" version="1.1" xmlns="http://www.w3.org/2000/svg" xmlns:xlink="http://www.w3.org/1999/xlink">
    <!-- Generator: sketchtool 39.1 (31720) - http://www.bohemiancoding.com/sketch -->
    <title>5F0E2F0D-D434-4DB6-94B6-F04D50B2DA70</title>
    <desc>Created with sketchtool.</desc>
    <defs>
        <polygon id="path-1" points="0.0130592376 80.5464758 0.0130592376 0.00856877402 81.7505777 0.00856877402 81.7505777 80.5464758 40.8818185 80.5464758"></polygon>
    </defs>
    <g id="Page-1" stroke="none" stroke-width="1" fill="none" fill-rule="evenodd" opacity="0.5">
        <g id="Desktop:-Login" transform="translate(-641.000000, -156.000000)">
            <g id="Group" transform="translate(641.000000, 156.000000)">
                <g id="language" transform="translate(0.472520, 0.815170)">
                    <path d="M14.257205,46.854699 L14.257205,43.4948827 C12.3995285,42.9417683 11.042456,41.2415093 11.042456,39.2355593 L11.042456,26.297139 C8.98758497,30.534612 7.83554256,35.2733582 7.83554256,40.2732379 C7.83554256,44.4974292 8.65762157,48.5365351 10.1515984,52.243601 C10.7253342,49.9490975 12.2345468,48.0153394 14.257205,46.854699 L14.257205,46.854699 Z" id="Fill-1" fill="#98D9D5"></path>
                    <path d="M67.4990638,51.7356869 L67.4990638,59.6382387 C69.3108153,57.2359829 70.7936918,54.5798772 71.8837028,51.7356869 L67.4990638,51.7356869 Z" id="Fill-2" fill="#98D9D5"></path>
                    <path d="M52.2088731,70.8815413 C49.9574605,69.0120491 48.6312949,66.2858936 48.6312949,63.3150996 L48.6312949,55.3011537 L45.3085896,55.3011537 C42.286029,55.3011537 39.8280629,52.8811177 39.8280629,49.9073247 C39.8280629,46.9324606 42.286029,44.5132815 45.3085896,44.5132815 L67.4241908,44.5132815 L67.4241908,42.1243073 C65.0794047,41.7417115 63.0099508,40.3460725 61.8034949,38.3118455 L51.6205544,38.3118455 C50.6445941,40.4690344 48.4569541,41.9049467 45.9904994,41.9049467 C42.5922681,41.9049467 39.8280629,39.1845751 39.8280629,35.8399684 L39.8280629,32.1731758 C39.8280629,31.4626102 40.4122461,30.8878597 41.1339866,30.8878597 L49.5408708,30.8878597 L49.5408708,28.4978144 C49.5408708,26.2168068 51.3306393,24.1322383 53.6160059,23.7507136 C53.688267,23.7389315 53.7613988,23.7331476 53.8336599,23.7331476 L57.9997743,23.7331476 L57.9997743,21.4904852 L55.8232347,21.4904852 C55.1021472,21.4904852 54.517311,20.9148778 54.517311,20.2051691 C54.517311,19.4948178 55.1021472,18.919853 55.8232347,18.919853 L61.4667843,18.919853 L61.4167238,14.7325074 C58.5056021,12.4649956 55.1990032,10.667481 51.6170719,9.45992651 C50.2645702,14.0664994 45.9080086,17.3819723 40.9189445,17.3819723 C35.9298804,17.3819723 31.5733188,14.0664994 30.2208171,9.45992651 C27.3682443,10.4221998 24.6902299,11.7587144 22.2474995,13.4079891 L26.9457779,13.4079891 C29.8695236,13.4079891 32.2484813,15.7494066 32.2484813,18.6278721 C32.2484813,20.4881529 31.2289902,22.1967664 29.6375044,23.1239078 L29.6375044,38.4690825 C29.6375044,39.1787912 29.0524506,39.7543986 28.3315807,39.7543986 C27.6104931,39.7543986 27.0256569,39.1787912 27.0256569,38.4690825 L27.0256569,38.0648506 C23.8348499,38.1209761 21.5146586,38.133615 20.0835839,38.1034101 L20.0835839,39.2355593 C20.0835839,41.242152 18.7267291,42.9417683 16.8690525,43.4948827 L16.8690525,45.8662909 C17.4445296,45.7484703 18.0398132,45.6865609 18.6503325,45.6865609 C23.3594936,45.6865609 27.2117511,49.3657782 27.395451,53.9573558 L29.4692579,53.9573558 C32.974575,53.9573558 35.8262771,56.7638435 35.8262771,60.2132035 C35.8262771,62.7964746 34.1921312,65.0950482 31.8166559,66.0281877 L31.8166559,71.5809675 C34.70993,72.396929 37.7629621,72.8345791 40.9189445,72.8345791 C44.8817702,72.8345791 48.6839672,72.1441502 52.2088731,70.8815413 L52.2088731,70.8815413 Z M45.2907419,25.572435 C45.2907419,24.8627262 45.8755781,24.2871189 46.5966657,24.2871189 C47.3175356,24.2871189 47.9025895,24.8627262 47.9025895,25.572435 L47.9025895,26.9113059 C47.9025895,27.6210146 47.3175356,28.196622 46.5966657,28.196622 C45.8755781,28.196622 45.2907419,27.6210146 45.2907419,26.9113059 L45.2907419,25.572435 Z" id="Fill-3" fill="#98D9D5"></path>
                    <path d="M64.8872162,62.6951488 L64.8872162,50.4503708 C64.8872162,49.7406621 65.4713995,49.1650547 66.19314,49.1650547 L72.7482243,49.1650547 C73.5652973,46.3375735 74.0023464,43.3552117 74.0023464,40.2732379 C74.0023464,31.1746994 70.1899197,22.9381796 64.0566487,17.0237976 L64.0940852,20.1901738 C64.0982206,20.5333532 63.9621869,20.8645363 63.7173262,21.1081037 C63.4715949,21.352528 63.1374961,21.4904852 62.7881615,21.4904852 L60.6116219,21.4904852 L60.6116219,25.0184637 C60.6116219,25.7281724 60.0274386,26.3037798 59.3056981,26.3037798 L53.9585933,26.3037798 C52.9858977,26.5179992 52.1527183,27.5196889 52.1527183,28.4978144 L52.1527183,32.1731758 C52.1527183,32.8826703 51.5678822,33.4584919 50.8467946,33.4584919 L42.4399104,33.4584919 L42.4399104,35.8399684 C42.4399104,37.7670857 44.0324844,39.3343145 45.9904994,39.3343145 C47.6144156,39.3343145 49.0291664,38.2548632 49.4303026,36.7084137 L49.4405323,36.7109843 C49.5443533,36.3303165 49.8614751,35.7412133 50.8298176,35.7412133 L62.5992378,35.7412133 C63.1146424,35.7412133 63.5821631,36.0389782 63.7921992,36.5025489 C64.6610738,38.4198121 66.5994999,39.659071 68.7301146,39.659071 C69.4512021,39.659071 70.0360383,40.2346784 70.0360383,40.9443871 L70.0360383,45.7985976 C70.0360383,46.5080921 69.4512021,47.0839137 68.7301146,47.0839137 L45.307719,47.0839137 C43.7262453,47.0839137 42.4399104,48.34995 42.4399104,49.9064678 C42.4399104,51.4636283 43.7262453,52.7296647 45.307719,52.7296647 L49.9372187,52.7296647 C50.6580886,52.7296647 51.2431424,53.3054863 51.2431424,54.0149808 L51.2431424,63.3150996 C51.2431424,65.9761324 52.6866235,68.3753891 55.0486043,69.7108326 C58.7572101,67.9795118 62.0901452,65.5905376 64.8872162,62.6951488 L64.8872162,62.6951488 Z" id="Fill-4" fill="#6DA8D6"></path>
                    <path d="M32.7238376,8.72365461 C33.7498584,12.2623441 37.0904113,14.8113401 40.9189445,14.8113401 C44.7474777,14.8113401 48.0880306,12.2623441 49.1140514,8.72365461 C46.4919741,8.06343057 43.7467048,7.71189662 40.9189445,7.71189662 C38.0911843,7.71189662 35.3459149,8.06343057 32.7238376,8.72365461 L32.7238376,8.72365461 Z" id="Fill-5" fill="#FFFFFF"></path>
                    <path d="M29.2048084,70.7240901 L29.2048084,65.0783391 C29.2048084,64.4699562 29.6375044,63.9444761 30.2419295,63.8206573 C31.9644429,63.4650532 33.2144296,61.9479518 33.2144296,60.2140603 C33.2144296,58.1815471 31.5343587,56.527988 29.4692579,56.527988 L26.0962745,56.527988 C25.3754046,56.527988 24.7903507,55.9530232 24.7903507,55.2426719 L24.7903507,54.3003209 C24.7903507,50.9683532 22.0357222,48.2571931 18.6503325,48.2571931 C15.2638546,48.2571931 12.509226,50.9683532 12.509226,54.3003209 L12.509226,56.9405744 C16.3146879,63.1996354 22.193086,68.1024737 29.2048084,70.7240901 L29.2048084,70.7240901 Z" id="Fill-6" fill="#6DA8D6"></path>
                    <path d="M15.5631288,41.114263 C16.6157033,41.114263 17.4717363,40.2715241 17.4717363,39.2355593 L17.4717363,36.7553277 C17.4717363,36.3579508 17.6589187,35.9830669 17.9777818,35.7394995 C18.282062,35.5077142 18.6740568,35.4198843 19.0490746,35.4976459 C19.6441405,35.5721942 23.3501345,35.5546282 27.0256569,35.4935757 L27.0256569,22.3182288 C27.0256569,21.7801098 27.3656324,21.2989731 27.8784251,21.1123881 C28.9301291,20.7300065 29.6366338,19.7315301 29.6366338,18.6278721 C29.6366338,17.167753 28.4293073,15.9794782 26.9457779,15.9794782 L18.9171763,15.9794782 C16.9345664,17.7208673 15.1652573,19.692328 13.6543035,21.8520875 L13.6543035,39.2347025 C13.6543035,40.2715241 14.5105542,41.114263 15.5631288,41.114263 L15.5631288,41.114263 Z" id="Fill-7" fill="#6DA8D6"></path>
                    <path d="M79.1409388,37.7863654 C77.8341444,18.0387688 61.0451885,2.57063221 40.9189445,2.57063221 C19.7962806,2.57063221 2.61184752,19.4838926 2.61184752,40.2732379 C2.61184752,47.8981614 4.91419111,55.2443856 9.26988216,61.5169424 C9.50016005,61.8491966 9.55979724,62.267567 9.43051078,62.6490917 L5.05283668,75.5725167 L18.1843354,71.2647797 C18.5719771,71.1375334 18.9970553,71.1962296 19.3346366,71.4228736 C25.7077622,75.7098313 33.1717694,77.9758436 40.9189445,77.9758436 C61.0451885,77.9758436 77.8341444,62.5077069 79.1409388,42.7601103 C79.1877344,42.0589704 79.7982537,41.5268495 80.508241,41.5611246 C80.5226061,41.1335428 80.5319652,40.7042472 80.5319652,40.2732379 C80.5319652,39.8422285 80.5226061,39.412933 80.508241,38.9853511 C79.7982537,39.0221969 79.1877344,38.4875054 79.1409388,37.7863654 L79.1409388,37.7863654 Z M67.2822804,63.9335509 C67.203272,64.0507289 67.1046748,64.1544111 66.9923653,64.2407415 C63.8185353,67.5819207 59.9934846,70.315788 55.7150607,72.2411915 C55.6182047,72.3016014 55.5119896,72.3476586 55.402292,72.3802199 C50.9734692,74.3231894 46.0729903,75.4052113 40.9189445,75.4052113 C37.1907498,75.4052113 33.5953241,74.8386012 30.2147227,73.7910685 C30.1383262,73.7735026 30.0634532,73.7499384 29.9929334,73.7199477 C21.6243562,71.0646989 14.5963099,65.4482959 10.1888172,58.1279923 C10.1089382,58.0309509 10.043642,57.9221275 9.99510516,57.8040926 C6.96144426,52.6418347 5.22369504,46.6537612 5.22369504,40.2732379 C5.22369504,33.1127419 7.41372919,26.4468783 11.1658658,20.8872435 C11.2220205,20.7683518 11.2958052,20.6603853 11.3843904,20.5650576 C13.092321,18.0931806 15.1125851,15.8473049 17.3877219,13.8799144 C17.4795719,13.7693772 17.5899224,13.6757633 17.7142029,13.6003581 C21.4541508,10.4440502 25.8625142,8.03579627 30.6985675,6.61059493 C30.7751817,6.58060423 30.8550607,6.5570401 30.9390751,6.54033099 C34.1070285,5.63075563 37.45607,5.14126441 40.9189445,5.14126441 C44.381819,5.14126441 47.7308605,5.63075563 50.8988139,6.54033099 C50.9828283,6.5570401 51.0627073,6.58060423 51.1393215,6.61145181 C55.6547706,7.94111132 59.7969431,10.129362 63.3703858,12.9827637 C63.4920544,13.052385 63.6008813,13.1393581 63.6927313,13.2413265 C71.5818167,19.6914711 76.614194,29.4142448 76.614194,40.2732379 C76.614194,43.9123962 76.048729,47.4236656 75.0005075,50.7264995 C74.9826599,50.8102593 74.9554531,50.8897347 74.9214991,50.9657825 C73.3374136,55.8334888 70.7044536,60.2434084 67.2822804,63.9335509 L67.2822804,63.9335509 Z" id="Fill-8" fill="#ECECEC"></path>
                    <path d="M76.614194,40.2732379 C76.614194,29.4142448 71.5818167,19.6914711 63.6927313,13.2413265 C63.6008813,13.1393581 63.4911837,13.052385 63.3703858,12.9827637 C59.7969431,10.129362 55.6547706,7.94111132 51.1393215,6.61145181 C51.0627073,6.58060423 50.9828283,6.5570401 50.8988139,6.54033099 C47.7308605,5.63075563 44.381819,5.14126441 40.9189445,5.14126441 C37.45607,5.14126441 34.1070285,5.63075563 30.9390751,6.54033099 C30.8550607,6.5570401 30.7751817,6.58060423 30.6985675,6.61145181 C25.8625142,8.03579627 21.4541508,10.4440502 17.7142029,13.6003581 C17.5899224,13.6757633 17.4795719,13.7693772 17.3877219,13.8799144 C15.1125851,15.8473049 13.092321,18.0931806 11.3843904,20.5650576 C11.2958052,20.6603853 11.2220205,20.7683518 11.1658658,20.8872435 C7.41372919,26.4468783 5.22369504,33.1127419 5.22369504,40.2732379 C5.22369504,46.6537612 6.96144426,52.6418347 9.99423454,57.8049495 C10.043642,57.9221275 10.1089382,58.0309509 10.1888172,58.1279923 C14.5963099,65.4482959 21.6243562,71.0655557 29.9929334,73.7199477 C30.0634532,73.7499384 30.1383262,73.7735026 30.2147227,73.7910685 C33.5953241,74.8386012 37.1907498,75.4052113 40.9189445,75.4052113 C46.0721197,75.4052113 50.9734692,74.3231894 55.402292,72.3802199 C55.5119896,72.3476586 55.6173341,72.3016014 55.7150607,72.2420484 C59.992614,70.3166449 63.8185353,67.5819207 66.9914947,64.2407415 C67.1046748,64.1544111 67.203272,64.0515858 67.2822804,63.9335509 C70.7044536,60.2434084 73.3374136,55.8343457 74.9214991,50.9666394 C74.9554531,50.8903773 74.9817893,50.8102593 75.0005075,50.7273564 C76.048729,47.4236656 76.614194,43.9123962 76.614194,40.2732379 L76.614194,40.2732379 Z M40.9189445,14.812197 C37.0904113,14.812197 33.7498584,12.2623441 32.7238376,8.72365461 C35.3459149,8.06343057 38.0911843,7.71189662 40.9189445,7.71189662 C43.7467048,7.71189662 46.4919741,8.06343057 49.1140514,8.72365461 C48.0880306,12.2623441 44.7474777,14.812197 40.9189445,14.812197 L40.9189445,14.812197 Z M12.509226,54.3003209 C12.509226,50.9683532 15.2638546,48.2571931 18.6503325,48.2571931 C22.0357222,48.2571931 24.7903507,50.9683532 24.7903507,54.3003209 L24.7903507,55.2426719 C24.7903507,55.9530232 25.3754046,56.527988 26.0962745,56.527988 L29.4692579,56.527988 C31.5343587,56.527988 33.2144296,58.1815471 33.2144296,60.2140603 C33.2144296,61.9479518 31.9644429,63.4650532 30.2428001,63.8206573 C29.6375044,63.945333 29.2048084,64.4699562 29.2048084,65.0783391 L29.2048084,70.7240901 C22.193086,68.1024737 16.3146879,63.1996354 12.509226,56.9405744 L12.509226,54.3003209 Z M18.9171763,15.9794782 L26.9457779,15.9794782 C28.4293073,15.9794782 29.6366338,17.1668961 29.6366338,18.6278721 C29.6366338,19.7315301 28.9301291,20.7300065 27.8784251,21.1123881 C27.3656324,21.2989731 27.0256569,21.7801098 27.0256569,22.3182288 L27.0256569,35.4935757 C23.3501345,35.5546282 19.6441405,35.5721942 19.0490746,35.4976459 C18.6740568,35.4198843 18.282062,35.5077142 17.9777818,35.7394995 C17.6589187,35.9830669 17.4717363,36.3579508 17.4717363,36.7553277 L17.4717363,39.2355593 C17.4717363,40.2715241 16.6157033,41.114263 15.5631288,41.114263 C14.5105542,41.114263 13.6543035,40.2715241 13.6543035,39.2355593 L13.6543035,21.8529444 C15.1652573,19.692328 16.9345664,17.7208673 18.9171763,15.9794782 L18.9171763,15.9794782 Z M11.042456,26.297139 L11.042456,39.2347025 C11.042456,41.2415093 12.3995285,42.9417683 14.257205,43.4940258 L14.257205,46.854699 C12.2345468,48.0153394 10.7253342,49.9490975 10.1515984,52.2427441 C8.65762157,48.5365351 7.83554256,44.4974292 7.83554256,40.2732379 C7.83554256,35.2733582 8.98758497,30.5337551 11.042456,26.297139 L11.042456,26.297139 Z M31.8166559,66.0281877 C34.1921312,65.0950482 35.8262771,62.7964746 35.8262771,60.2132035 C35.8262771,56.7638435 32.974575,53.9573558 29.4692579,53.9573558 L27.395451,53.9573558 C27.2117511,49.3657782 23.3594936,45.6865609 18.6503325,45.6865609 C18.0398132,45.6865609 17.4438766,45.7484703 16.8690525,45.8662909 L16.8690525,43.4948827 C18.7267291,42.9417683 20.0835839,41.242152 20.0835839,39.2355593 L20.0835839,38.1034101 C21.5146586,38.133615 23.8348499,38.1209761 27.0256569,38.0648506 L27.0256569,38.4690825 C27.0256569,39.1787912 27.6098401,39.7543986 28.3315807,39.7543986 C29.0524506,39.7543986 29.6375044,39.1787912 29.6375044,38.4690825 L29.6375044,23.1239078 C31.2289902,22.1967664 32.2484813,20.4881529 32.2484813,18.6278721 C32.2484813,15.7494066 29.8695236,13.4079891 26.9449073,13.4079891 L22.2466289,13.4079891 C24.6902299,11.7587144 27.3673736,10.421343 30.2208171,9.45992651 C31.5733188,14.0664994 35.9298804,17.3819723 40.9189445,17.3819723 C45.9080086,17.3819723 50.2636996,14.0664994 51.6162013,9.45992651 C55.1990032,10.667481 58.5056021,12.4649956 61.4167238,14.7325074 L61.4667843,18.919853 L55.8232347,18.919853 C55.1021472,18.919853 54.517311,19.4948178 54.517311,20.2051691 C54.517311,20.9148778 55.1021472,21.4904852 55.8232347,21.4904852 L57.9997743,21.4904852 L57.9997743,23.7331476 L53.8336599,23.7331476 C53.7613988,23.7331476 53.688267,23.7389315 53.6160059,23.7507136 C51.3306393,24.1322383 49.5408708,26.2168068 49.5408708,28.4978144 L49.5408708,30.8878597 L41.1339866,30.8878597 C40.4122461,30.8878597 39.8280629,31.4626102 39.8280629,32.1731758 L39.8280629,35.8399684 C39.8280629,39.1845751 42.5922681,41.9049467 45.9904994,41.9049467 C48.4569541,41.9049467 50.6445941,40.4690344 51.6205544,38.3118455 L61.8034949,38.3118455 C63.0099508,40.3460725 65.0794047,41.7417115 67.4241908,42.1243073 L67.4241908,44.5132815 L45.307719,44.5132815 C42.286029,44.5132815 39.8280629,46.9324606 39.8280629,49.9073247 C39.8280629,52.8811177 42.286029,55.3011537 45.307719,55.3011537 L48.6312949,55.3011537 L48.6312949,63.3150996 C48.6312949,66.2858936 49.9565899,69.0120491 52.2080025,70.8815413 C48.6839672,72.1441502 44.8817702,72.8345791 40.9189445,72.8345791 C37.7629621,72.8345791 34.7090594,72.396929 31.8166559,71.5809675 L31.8166559,66.0281877 Z M55.0486043,69.7108326 C52.6874941,68.3753891 51.2431424,65.9761324 51.2431424,63.3150996 L51.2431424,54.0149808 C51.2431424,53.3054863 50.6580886,52.7296647 49.9372187,52.7296647 L45.3085896,52.7296647 C43.7262453,52.7296647 42.4399104,51.4636283 42.4399104,49.9064678 C42.4399104,48.34995 43.7262453,47.0839137 45.3085896,47.0839137 L68.7301146,47.0839137 C69.4520727,47.0839137 70.0360383,46.5080921 70.0360383,45.7985976 L70.0360383,40.9443871 C70.0360383,40.2346784 69.4520727,39.659071 68.7301146,39.659071 C66.5994999,39.659071 64.6610738,38.4198121 63.7921992,36.5025489 C63.5821631,36.0389782 63.1152954,35.7412133 62.5992378,35.7412133 L50.8298176,35.7412133 C49.8614751,35.7412133 49.5443533,36.3303165 49.4405323,36.7109843 L49.4303026,36.7084137 C49.0291664,38.2540063 47.6144156,39.3343145 45.9904994,39.3343145 C44.0324844,39.3343145 42.4399104,37.7670857 42.4399104,35.8399684 L42.4399104,33.4584919 L50.8467946,33.4584919 C51.5678822,33.4584919 52.1527183,32.8826703 52.1527183,32.1731758 L52.1527183,28.4978144 C52.1527183,27.5196889 52.9867683,26.5179992 53.9585933,26.3037798 L59.3063511,26.3037798 C60.0274386,26.3037798 60.6122748,25.7281724 60.6122748,25.0184637 L60.6122748,21.4904852 L62.7888144,21.4904852 C63.1374961,21.4904852 63.4724655,21.352528 63.7173262,21.1081037 C63.9630575,20.8638936 64.0982206,20.5333532 64.0940852,20.1901738 L64.0566487,17.0237976 C70.1899197,22.9381796 74.0023464,31.1746994 74.0023464,40.2732379 C74.0023464,43.3552117 73.5652973,46.3375735 72.7482243,49.1650547 L66.19314,49.1650547 C65.4722701,49.1650547 64.8872162,49.7406621 64.8872162,50.4503708 L64.8872162,62.6951488 C62.0901452,65.5905376 58.7572101,67.9795118 55.0486043,69.7108326 L55.0486043,69.7108326 Z M67.4990638,51.7356869 L71.8837028,51.7356869 C70.7936918,54.5798772 69.3099447,57.2359829 67.4990638,59.6382387 L67.4990638,51.7356869 Z" id="Fill-9" fill="#072947"></path>
                    <g id="Group-13">
                        <mask id="mask-2" fill="white">
                            <use xlink:href="#path-1"></use>
                        </mask>
                        <g id="Clip-11"></g>
                        <path d="M46.5966657,28.196622 C47.3175356,28.196622 47.9025895,27.6210146 47.9025895,26.9113059 L47.9025895,25.572435 C47.9025895,24.8627262 47.3175356,24.2871189 46.5966657,24.2871189 C45.8755781,24.2871189 45.2907419,24.8627262 45.2907419,25.572435 L45.2907419,26.9113059 C45.2907419,27.6210146 45.8755781,28.196622 46.5966657,28.196622 L46.5966657,28.196622 Z" id="Fill-10" fill="#072947" mask="url(#mask-2)"></path>
                        <path d="M80.5293534,41.5611246 L80.508241,41.5611246 C79.7982537,41.5268495 79.1877344,42.0589704 79.1409388,42.7601103 C77.8341444,62.5077069 61.0451885,77.9758436 40.9189445,77.9758436 C33.1717694,77.9758436 25.7077622,75.7098313 19.3346366,71.4228736 C18.9970553,71.1968722 18.5719771,71.1383903 18.1843354,71.2647797 L5.05283668,75.5733735 L9.43051078,62.6490917 C9.55979724,62.267567 9.50016005,61.8491966 9.26988216,61.5169424 C4.91419111,55.2443856 2.61184752,47.8981614 2.61184752,40.2732379 C2.61184752,19.4838926 19.7962806,2.57063221 40.9189445,2.57063221 C61.0451885,2.57063221 77.8341444,18.0387688 79.1409388,37.7863654 C79.1877344,38.4875054 79.7982537,39.0221969 80.508241,38.9853511 C80.5149882,38.9853511 80.5217355,38.986208 80.5293534,38.9853511 C81.2486997,38.939294 81.7945759,38.3276977 81.7477803,37.6188459 C81.0734883,27.4284314 76.5275677,17.9509389 68.9468979,10.9326845 C61.3324918,3.88272573 51.3783056,0 40.9189445,0 C29.9885803,0 19.7137898,4.1890594 11.9844624,11.7953459 C4.25622319,19.4027034 0,29.5153563 0,40.2732379 C0,48.2027814 2.33129157,55.8510548 6.74988461,62.4348723 L1.74884957,77.1984415 C1.59322699,77.6602984 1.71489555,78.1699263 2.06510077,78.5139626 C2.41465303,78.8586415 2.93158119,78.9783901 3.40084313,78.8243664 L18.4019894,73.9031053 C25.0913662,78.2519723 32.8613949,80.5464758 40.9189445,80.5464758 C51.3783056,80.5464758 61.3324918,76.66375 68.9468979,69.6137912 C76.5266971,62.5955369 81.0726177,53.1180443 81.7469096,42.9276298 C81.7945759,42.218778 81.2486997,41.6078244 80.5293534,41.5611246 L80.5293534,41.5611246 Z" id="Fill-12" fill="#072947" mask="url(#mask-2)"></path>
                    </g>
                </g>
            </g>
        </g>
    </g>
</svg>