<?xml version="1.0" encoding="UTF-8" standalone="no"?>
<svg width="10px" height="19px" viewBox="0 0 10 19" version="1.1" xmlns="http://www.w3.org/2000/svg" xmlns:xlink="http://www.w3.org/1999/xlink">
    <!-- Generator: sketchtool 39.1 (31720) - http://www.bohemiancoding.com/sketch -->
    <title>84EFABE8-9526-4714-8430-4448642081AF</title>
    <desc>Created with sketchtool.</desc>
    <defs></defs>
    <g id="Page-1" stroke="none" stroke-width="1" fill="none" fill-rule="evenodd">
        <g id="Desktop:-Super-admin-dashboard" transform="translate(-1306.000000, -137.000000)" fill="#FFFFFF">
            <g id="Group-2" transform="translate(1007.000000, 119.000000)">
                <g id="man-walking" transform="translate(299.000000, 18.000000)">
                    <g id="Capa_1">
                        <path d="M5.1516763,4.23212604 C6.34774566,4.23212604 7.32086705,3.2828325 7.32086705,2.11606302 C7.32086705,0.949293532 6.34780347,0 5.1516763,0 C3.95549133,0 2.98231214,0.949237148 2.98231214,2.11600663 C2.98231214,3.28277612 3.95549133,4.23212604 5.1516763,4.23212604 L5.1516763,4.23212604 Z M5.1516763,1.01492537 C5.77410405,1.01492537 6.28040462,1.50891211 6.28040462,2.11600663 C6.28040462,2.72321393 5.77404624,3.21714428 5.1516763,3.21714428 C4.52919075,3.21714428 4.02277457,2.72315755 4.02277457,2.11600663 C4.02277457,1.50891211 4.52924855,1.01492537 5.1516763,1.01492537 L5.1516763,1.01492537 Z M8.5232948,18.3777048 C8.5232948,18.6579934 8.29040462,18.8851675 8.00306358,18.8851675 L6.59971098,18.8851675 C6.59884393,18.8851675 6.59791908,18.8853367 6.59705202,18.8853367 C6.57936416,18.8853367 6.56196532,18.8842653 6.54462428,18.8825738 C6.54393064,18.8825174 6.54323699,18.8824046 6.54248555,18.8822919 C6.5266474,18.8806567 6.51098266,18.8783449 6.49554913,18.8753002 C6.49115607,18.8744544 6.48687861,18.8732703 6.48254335,18.8723118 C6.47104046,18.8697745 6.45965318,18.867068 6.4483815,18.8637413 C6.44236994,18.8619934 6.4365896,18.8599635 6.43069364,18.85799 C6.42132948,18.8548889 6.41208092,18.8517313 6.40300578,18.8481227 C6.39641618,18.845529 6.39,18.8427098 6.38352601,18.8398905 C6.37537572,18.8362819 6.36734104,18.8325605 6.35942197,18.8285572 C6.35277457,18.8251741 6.34618497,18.8217347 6.33971098,18.8180697 C6.33225434,18.8139536 6.3250289,18.8096119 6.31780347,18.8051012 C6.31138728,18.8010978 6.30508671,18.7970945 6.29890173,18.7928657 C6.29184971,18.788073 6.28508671,18.7829983 6.2783237,18.7778109 C6.27248555,18.7733566 6.2666474,18.7689585 6.26098266,18.7642786 C6.25416185,18.7586401 6.24763006,18.7526633 6.24109827,18.7466302 C6.23601156,18.7419502 6.23080925,18.7373831 6.22589595,18.7324776 C6.21924855,18.7258242 6.21294798,18.7188325 6.2067052,18.7118408 C6.20242775,18.7071045 6.19791908,18.7024245 6.19381503,18.6975191 C6.18739884,18.6897944 6.18144509,18.681675 6.17549133,18.6736119 C6.17202312,18.668932 6.1683237,18.6644212 6.1650289,18.6595721 C6.15890173,18.6506633 6.1533526,18.6413035 6.14780347,18.6319436 C6.14017341,18.6192007 6.13323699,18.606063 6.12676301,18.5926434 C6.12433526,18.5875688 6.1216185,18.5827761 6.11936416,18.5775887 C6.11468208,18.5669884 6.11075145,18.555937 6.10682081,18.544942 C6.10543353,18.5410514 6.10375723,18.5372736 6.10248555,18.5333267 C6.09878613,18.5220498 6.09578035,18.5104909 6.09283237,18.4988756 C6.09184971,18.4949287 6.09063584,18.4910381 6.08971098,18.4870912 C6.08716763,18.4758143 6.08531792,18.4643118 6.08358382,18.4528093 C6.08300578,18.4490879 6.08208092,18.4454793 6.0816185,18.4417579 L6.08040462,18.4322852 C6.08028902,18.4310448 6.0800578,18.4298607 6.0799422,18.4286766 L4.78404624,8.48246434 C4.74780347,8.20443118 4.94947977,7.95036153 5.23450867,7.91506468 C5.51988439,7.87954229 5.78,8.07643781 5.81618497,8.35447098 L7.05595376,17.8702421 L8.00306358,17.8702421 C8.29034682,17.8702421 8.5232948,18.0974163 8.5232948,18.3777048 L8.5232948,18.3777048 Z M9.66653179,12.5882886 C9.60294798,12.6132106 9.53728324,12.624995 9.47265896,12.624995 C9.26653179,12.624995 9.07144509,12.50467 8.98976879,12.3066468 L7.34895954,8.32526368 C6.84919075,7.11242786 6.37797688,6.33476949 5.57427746,6.20547927 C5.31791908,6.16606633 3.57554913,6.17198673 3.3282659,6.21309121 C2.38427746,6.38517745 1.71843931,7.38346932 1.11745665,8.39117745 L1.09913295,8.4220199 L2.16040462,11.0999569 C2.26398844,11.3613566 2.13075145,11.6552338 1.86277457,11.7562753 C1.5949711,11.857204 1.29358382,11.7272935 1.1899422,11.4659502 L0.0385549133,8.56072637 C-0.0183815029,8.41705804 -0.00537572254,8.25596683 0.0739884393,8.12272968 L0.217976879,7.88106468 C0.90867052,6.72286567 1.76080925,5.46638806 3.13797688,5.21536318 C3.50953757,5.14741957 5.41323699,5.15091542 5.74364162,5.204199 C7.16728324,5.43323383 7.81705202,6.73995025 8.31439306,7.94686567 L9.95520231,11.9282488 C10.0623699,12.1881824 9.93312139,12.4836949 9.66653179,12.5882886 L9.66653179,12.5882886 Z M4.65982659,13.1676982 L3.02595376,17.8701857 L3.70589595,17.8701857 C3.99323699,17.8701857 4.22612717,18.0973599 4.22612717,18.3776484 C4.22612717,18.657937 3.99323699,18.8851111 3.70589595,18.8851111 L2.30398844,18.8851111 C2.30277457,18.8851111 2.30156069,18.885393 2.30034682,18.885393 C2.2832948,18.885393 2.26612717,18.8842653 2.24895954,18.8825738 C2.24682081,18.8824046 2.24473988,18.8820663 2.24260116,18.8818408 C2.22919075,18.8803748 2.21572254,18.8783449 2.20231214,18.875864 C2.19751445,18.8749619 2.19277457,18.8740033 2.18803468,18.8729884 C2.17774566,18.870733 2.16745665,18.8681393 2.15722543,18.8652637 C2.15127168,18.8635721 2.14531792,18.8619934 2.13947977,18.8601891 C2.13739884,18.8595124 2.13531792,18.8590614 2.1332948,18.8583847 C2.12820809,18.8566932 2.12346821,18.8544942 2.11843931,18.8526335 C2.10907514,18.849194 2.09971098,18.8458109 2.09057803,18.841864 C2.08283237,18.8385373 2.07537572,18.8348723 2.06786127,18.8312073 C2.06046243,18.8275987 2.05306358,18.8240464 2.04589595,18.8200995 C2.03722543,18.8153632 2.02890173,18.8102322 2.02057803,18.8050448 C2.0150289,18.8016053 2.00947977,18.7982222 2.00410405,18.7945572 C1.99514451,18.788524 1.98653179,18.7820962 1.97797688,18.7754992 C1.97352601,18.7720597 1.96901734,18.7686202 1.96468208,18.7650116 C1.95618497,18.7580199 1.94809249,18.7507463 1.94011561,18.7432471 C1.93595376,18.7393566 1.93179191,18.7355224 1.92780347,18.7314627 C1.92046243,18.7240763 1.9134104,18.7164643 1.9065896,18.7086833 C1.90231214,18.7038905 1.89809249,18.6990415 1.89398844,18.6940796 C1.88803468,18.686806 1.88242775,18.6793632 1.87687861,18.6717512 C1.87242775,18.6657181 1.86809249,18.6595721 1.86393064,18.6533134 C1.85936416,18.6464345 1.85508671,18.6393864 1.85086705,18.6323383 C1.84647399,18.6250083 1.84219653,18.6176219 1.83820809,18.6100663 C1.83473988,18.6034693 1.83150289,18.5968159 1.8283237,18.5901061 C1.82445087,18.581874 1.82063584,18.5736418 1.81722543,18.5651841 C1.81445087,18.5583615 1.81196532,18.551539 1.80947977,18.5446036 C1.80647399,18.5362023 1.80352601,18.5277446 1.80098266,18.5191177 C1.79867052,18.5113367 1.79676301,18.5034992 1.79479769,18.4956053 C1.79289017,18.4877678 1.79098266,18.4799867 1.78942197,18.4720365 C1.78757225,18.4626202 1.78624277,18.4530912 1.7849711,18.4435058 C1.78410405,18.4369088 1.78306358,18.4303118 1.78248555,18.423602 C1.78144509,18.4124942 1.78104046,18.40133 1.78075145,18.3901095 C1.78063584,18.3858806 1.78011561,18.3817645 1.78011561,18.3775357 C1.78011561,18.3760133 1.78034682,18.3746036 1.78034682,18.3730813 C1.78046243,18.3623682 1.78121387,18.3515987 1.78202312,18.3407728 C1.78254335,18.3341194 1.78283237,18.3274096 1.78358382,18.3208126 C1.78450867,18.3126932 1.78601156,18.3046302 1.78739884,18.2965108 C1.78890173,18.2872073 1.79040462,18.2779038 1.79242775,18.2687695 C1.79364162,18.2634129 1.79526012,18.2581128 1.7966474,18.2527562 C1.79965318,18.2410846 1.80283237,18.2295257 1.8067052,18.2182488 C1.80710983,18.2170647 1.80728324,18.215937 1.80768786,18.2148093 L3.67450867,12.8418507 C3.7667052,12.576335 4.06219653,12.4337944 4.33416185,12.5241227 C4.60624277,12.6141692 4.75202312,12.9022952 4.65982659,13.1676982 L4.65982659,13.1676982 Z" id="Shape"></path>
                    </g>
                </g>
            </g>
        </g>
    </g>
</svg>