<?xml version="1.0" encoding="UTF-8" standalone="no"?>
<svg width="22px" height="26px" viewBox="0 0 22 26" version="1.1" xmlns="http://www.w3.org/2000/svg" xmlns:xlink="http://www.w3.org/1999/xlink">
    <!-- Generator: sketchtool 39.1 (31720) - http://www.bohemiancoding.com/sketch -->
    <title>79E33082-FDB7-402A-BBBB-28DDD77E88C6</title>
    <desc>Created with sketchtool.</desc>
    <defs></defs>
    <g id="Page-1" stroke="none" stroke-width="1" fill="none" fill-rule="evenodd">
        <g id="Desktop:-Super-admin-dashboard---side-menu-(hover)" transform="translate(-32.000000, -118.000000)" fill="#FFFFFF">
            <path d="M38.7052961,133.318244 C38.4906579,133.099703 38.1432303,133.099703 37.9285921,133.318244 L37.1513158,134.109653 L36.3746118,133.318827 C36.1599737,133.100286 35.8125461,133.100286 35.5979079,133.318827 C35.3832697,133.536785 35.3832697,133.891112 35.5979079,134.109653 L36.3746118,134.900478 L35.5979079,135.691304 C35.3832697,135.909845 35.3832697,136.264172 35.5979079,136.48213 C35.8125461,136.700671 36.1599737,136.700671 36.3746118,136.48213 L37.1513158,135.691304 L37.9280197,136.48213 C38.1426579,136.700671 38.4900855,136.700671 38.7047237,136.48213 C38.9193618,136.264172 38.9193618,135.909845 38.7047237,135.691304 L37.9280197,134.900478 L38.7047237,134.109653 C38.9199342,133.891112 38.9199342,133.536202 38.7052961,133.318244 L38.7052961,133.318244 Z M38.7052961,127.490493 C38.4906579,127.271952 38.1432303,127.271952 37.9285921,127.490493 L37.1513158,128.281901 L36.3746118,127.491076 C36.1599737,127.272535 35.8125461,127.272535 35.5979079,127.491076 C35.3832697,127.709033 35.3832697,128.063361 35.5979079,128.281901 L36.3746118,129.072727 L35.5979079,129.863553 C35.3832697,130.082094 35.3832697,130.435838 35.5979079,130.654379 C35.8125461,130.87292 36.1599737,130.87292 36.3746118,130.654379 L37.1513158,129.863553 L37.9280197,130.654379 C38.1426579,130.87292 38.4900855,130.87292 38.7047237,130.654379 C38.9193618,130.435838 38.9193618,130.082094 38.7047237,129.863553 L37.9280197,129.072727 L38.7047237,128.281901 C38.9199342,128.063361 38.9199342,127.708451 38.7052961,127.490493 L38.7052961,127.490493 Z M53.1776316,120.3311 L50.3157895,120.3311 L50.3157895,119.16555 C50.3157895,118.522167 49.8029474,118 49.1710526,118 L48.0263158,118 C47.3944211,118 46.8815789,118.522167 46.8815789,119.16555 L46.8815789,120.3311 L38.8684211,120.3311 L38.8684211,119.16555 C38.8684211,118.522167 38.3555789,118 37.7236842,118 L36.5789474,118 C35.9470526,118 35.4342105,118.522167 35.4342105,119.16555 L35.4342105,120.3311 L32.5723684,120.3311 C32.2558487,120.3311 32,120.591601 32,120.913876 L32,143.05933 C32,143.381605 32.2558487,143.642105 32.5723684,143.642105 L53.1776316,143.642105 C53.4941513,143.642105 53.75,143.381605 53.75,143.05933 L53.75,120.913876 C53.75,120.591601 53.4941513,120.3311 53.1776316,120.3311 L53.1776316,120.3311 Z M48.0263158,119.748325 C48.0263158,119.426051 48.2821645,119.16555 48.5986842,119.16555 C48.9152039,119.16555 49.1710526,119.426051 49.1710526,119.748325 L49.1710526,122.079426 C49.1710526,122.4017 48.9152039,122.662201 48.5986842,122.662201 C48.2821645,122.662201 48.0263158,122.4017 48.0263158,122.079426 L48.0263158,119.748325 L48.0263158,119.748325 Z M36.5789474,119.748325 C36.5789474,119.426051 36.8347961,119.16555 37.1513158,119.16555 C37.4678355,119.16555 37.7236842,119.426051 37.7236842,119.748325 L37.7236842,122.079426 C37.7236842,122.4017 37.4678355,122.662201 37.1513158,122.662201 C36.8347961,122.662201 36.5789474,122.4017 36.5789474,122.079426 L36.5789474,119.748325 L36.5789474,119.748325 Z M52.6052632,142.476555 L33.1447368,142.476555 L33.1447368,121.496651 L35.4342105,121.496651 L35.4342105,122.662201 C35.4342105,123.305585 35.9470526,123.827751 36.5789474,123.827751 L37.7236842,123.827751 C38.3555789,123.827751 38.8684211,123.305585 38.8684211,122.662201 L38.8684211,121.496651 L46.8815789,121.496651 L46.8815789,122.662201 C46.8815789,123.305585 47.3944211,123.827751 48.0263158,123.827751 L49.1710526,123.827751 C49.8029474,123.827751 50.3157895,123.305585 50.3157895,122.662201 L50.3157895,121.496651 L52.6052632,121.496651 L52.6052632,142.476555 L52.6052632,142.476555 Z M49.1710526,128.489952 L41.1578947,128.489952 C40.841375,128.489952 40.5855263,128.750453 40.5855263,129.072727 C40.5855263,129.395002 40.841375,129.655502 41.1578947,129.655502 L49.1710526,129.655502 C49.4875724,129.655502 49.7434211,129.395002 49.7434211,129.072727 C49.7434211,128.750453 49.4875724,128.489952 49.1710526,128.489952 L49.1710526,128.489952 Z M46.8815789,134.317703 L41.1578947,134.317703 C40.841375,134.317703 40.5855263,134.578204 40.5855263,134.900478 C40.5855263,135.222753 40.841375,135.483254 41.1578947,135.483254 L46.8815789,135.483254 C47.1980987,135.483254 47.4539474,135.222753 47.4539474,134.900478 C47.4539474,134.578204 47.1980987,134.317703 46.8815789,134.317703 L46.8815789,134.317703 Z" id="Shape"></path>
        </g>
    </g>
</svg>