<?xml version="1.0" encoding="UTF-8" standalone="no"?>
<svg width="27px" height="27px" viewBox="0 0 27 27" version="1.1" xmlns="http://www.w3.org/2000/svg" xmlns:xlink="http://www.w3.org/1999/xlink">
    <!-- Generator: sketchtool 39.1 (31720) - http://www.bohemiancoding.com/sketch -->
    <title>BED7FFB0-0808-4E17-A671-B649F075C0AE</title>
    <desc>Created with sketchtool.</desc>
    <defs></defs>
    <g id="Page-1" stroke="none" stroke-width="1" fill="none" fill-rule="evenodd">
        <g id="Desktop:-Super-admin-dashboard---side-menu-(hover)" transform="translate(-29.000000, -261.000000)" fill="#FFFFFF">
            <g id="Delivery-guy" transform="translate(29.000000, 261.000000)">
                <g id="outline_31_">
                    <path d="M6.19956818,0.902659091 L6.16765909,0.807545455 L6.17072727,0.806318182 C6.18545455,0.852340909 6.19404545,0.881181818 6.19956818,0.902659091 L7.39493182,4.48936364 L7.398,4.48813636 C7.45015909,4.64461364 7.56490909,4.76672727 7.71034091,4.83913636 C7.48820455,5.43436364 7.36363636,6.07684091 7.36363636,6.75 L7.36363636,11.0454545 C7.36363636,14.0958409 10.4496136,16.5681818 13.5,16.5681818 C16.5503864,16.5681818 19.6363636,14.0958409 19.6363636,11.0454545 L19.6363636,6.75 C19.6363636,6.10322727 19.5203864,5.48468182 19.3148182,4.90909091 L23.9318182,4.90909091 C24.2711591,4.90909091 24.5454545,4.63479545 24.5454545,4.29545455 C24.5454545,3.95611364 24.2711591,3.68181818 23.9318182,3.68181818 L19.8738409,3.68181818 L20.8010455,0.902659091 C20.8065682,0.880568182 20.8145455,0.851727273 20.8298864,0.806931818 L20.8329545,0.808159091 L20.8010455,0.902659091 C20.7390682,1.15118182 21.21525,0 20.25,0 L6.75,0 C5.78413636,0 6.26031818,1.15056818 6.19956818,0.902659091 L6.19956818,0.902659091 Z M18.4090909,11.0454545 C18.4090909,13.4177727 15.8723182,15.3409091 13.5,15.3409091 C11.1276818,15.3409091 8.59090909,13.4177727 8.59090909,11.0454545 L8.59090909,6.75 C8.59090909,6.08911364 8.74677273,5.46688636 9.01431818,4.90909091 L17.9844545,4.90909091 C18.2532273,5.46688636 18.4090909,6.08911364 18.4090909,6.75 L18.4090909,11.0454545 L18.4090909,11.0454545 Z M19.3988864,1.22727273 L18.5802955,3.68181818 L8.41970455,3.68181818 L7.60111364,1.22727273 L19.3988864,1.22727273 L19.3988864,1.22727273 Z M20.8636364,19.0227273 L6.13636364,19.0227273 C2.74725,19.0227273 0,21.7705909 0,25.1590909 L0,26.3863636 C0,26.7257045 0.274295455,27 0.613636364,27 C0.952977273,27 1.22727273,26.7257045 1.22727273,26.3863636 L1.22727273,25.1590909 C1.22727273,22.4480455 3.42531818,20.25 6.13636364,20.25 L20.8636364,20.25 C23.5746818,20.25 25.7727273,22.4480455 25.7727273,25.1590909 L25.7727273,26.3863636 C25.7727273,26.7257045 26.0470227,27 26.3863636,27 C26.7257045,27 27,26.7257045 27,26.3863636 L27,25.1590909 C27,21.7705909 24.25275,19.0227273 20.8636364,19.0227273 L20.8636364,19.0227273 Z M13.5,11.6590909 C13.8393409,11.6590909 14.1136364,11.3847955 14.1136364,11.0454545 L14.1136364,8.59090909 C14.1136364,8.25156818 13.8393409,7.97727273 13.5,7.97727273 C13.1606591,7.97727273 12.8863636,8.25156818 12.8863636,8.59090909 L12.8863636,11.0454545 C12.8863636,11.3847955 13.1606591,11.6590909 13.5,11.6590909 L13.5,11.6590909 Z M15.9545455,6.75 C15.6152045,6.75 15.3409091,7.02429545 15.3409091,7.36363636 C15.3409091,7.70297727 15.6152045,7.97727273 15.9545455,7.97727273 C16.2938864,7.97727273 16.5681818,7.70297727 16.5681818,7.36363636 C16.5681818,7.02429545 16.2938864,6.75 15.9545455,6.75 L15.9545455,6.75 Z M11.0454545,7.97727273 C11.3847955,7.97727273 11.6590909,7.70297727 11.6590909,7.36363636 C11.6590909,7.02429545 11.3847955,6.75 11.0454545,6.75 C10.7061136,6.75 10.4318182,7.02429545 10.4318182,7.36363636 C10.4318182,7.70297727 10.7061136,7.97727273 11.0454545,7.97727273 L11.0454545,7.97727273 Z M15.9545455,11.6590909 C15.7796591,11.6590909 15.6237955,11.7345682 15.5115,11.8517727 C15.0641591,12.2954318 14.1725455,12.8863636 13.5,12.8863636 C12.8225455,12.8863636 11.9211136,12.2665909 11.4768409,11.8223182 C11.4768409,11.8223182 11.3676136,11.6590909 11.0454545,11.6590909 C10.7061136,11.6590909 10.4318182,11.9333864 10.4318182,12.2727273 C10.4318182,12.4666364 10.5275455,12.6329318 10.6686818,12.7452273 C11.3449091,13.3975227 12.5114318,14.1136364 13.5,14.1136364 C14.5161818,14.1136364 15.7244318,13.3754318 16.3908409,12.7090227 L16.3883864,12.7065682 C16.5000682,12.5955 16.5681818,12.4420909 16.5681818,12.2727273 C16.5681818,11.9333864 16.2938864,11.6590909 15.9545455,11.6590909 L15.9545455,11.6590909 Z" id="Shape"></path>
                </g>
            </g>
        </g>
    </g>
</svg>