<?xml version="1.0" encoding="UTF-8" standalone="no"?>
<svg width="29px" height="27px" viewBox="0 0 29 27" version="1.1" xmlns="http://www.w3.org/2000/svg" xmlns:xlink="http://www.w3.org/1999/xlink">
    <!-- Generator: sketchtool 39.1 (31720) - http://www.bohemiancoding.com/sketch -->
    <title>291A0704-9A88-4D32-95F9-7D219B453B1C</title>
    <desc>Created with sketchtool.</desc>
    <defs></defs>
    <g id="Page-1" stroke="none" stroke-width="1" fill="none" fill-rule="evenodd">
        <g id="Desktop:-Super-admin-dashboard---side-menu-(hover)" transform="translate(-28.000000, -189.000000)" fill="#FFFFFF">
            <path d="M56.1859592,209.704656 L51.7649583,205.277849 C52.6389671,203.703989 53.1407965,201.894049 53.1407965,199.965424 C53.1407965,193.909285 48.2315116,189 42.1753725,189 C36.1192333,189 31.2099485,193.909285 31.2099485,199.965424 C31.2099485,201.891468 31.7098429,203.700118 32.5832066,205.273334 L28.1641408,209.691755 C27.9087109,209.947185 27.9686982,210.483846 28.2247731,210.739276 C28.4531119,210.967614 28.6298488,210.930848 28.6298488,210.930848 L32.4999984,210.930848 L32.4999984,214.800998 C32.515479,214.943548 32.5844967,215.098999 32.6941509,215.208653 C32.9495808,215.464083 33.4649557,215.50472 33.7210306,215.24929 L38.6341856,210.33549 C39.7468536,210.71541 40.9343445,210.931493 42.1753725,210.931493 C43.4125303,210.931493 44.5974411,210.717345 45.706884,210.33936 L50.6303594,215.269286 C50.8857893,215.525361 51.4011642,215.485369 51.6572391,215.228649 C51.7668933,215.118995 51.835266,214.963544 51.8513916,214.820993 L51.8513916,210.945684 L55.7215412,210.945684 C55.7215412,210.945684 55.896988,210.983095 56.1266169,210.753466 C56.3807567,210.496746 56.4413891,209.960085 56.1859592,209.704656 L56.1859592,209.704656 Z M33.757797,213.358722 L33.757797,210.223901 C33.7416714,210.08135 33.6887794,209.94138 33.5797701,209.83237 C33.3636868,209.616287 33.188885,209.644668 33.188885,209.644668 L30.0534188,209.654989 L33.3088597,206.399548 C34.350575,207.832148 35.7270582,208.998353 37.327365,209.790444 L33.757797,213.358722 L33.757797,213.358722 Z M42.1747275,209.640153 C36.8313409,209.640153 32.4993534,205.308166 32.4993534,199.964779 C32.4993534,194.621392 36.8313409,190.289405 42.1747275,190.289405 C47.5181141,190.289405 51.8501016,194.621392 51.8501016,199.964779 C51.8501016,205.308166 47.5181141,209.640153 42.1747275,209.640153 L42.1747275,209.640153 Z M51.1605699,209.656924 C51.1605699,209.656924 50.9857681,209.628543 50.7703298,209.844626 C50.6606756,209.95428 50.6084285,210.094251 50.5929479,210.236801 L50.5929479,213.375492 L47.0143496,209.792379 C48.6165915,209.001578 49.9950098,207.835373 51.0373701,206.402773 L54.2973262,209.666599 L51.1605699,209.656924 L51.1605699,209.656924 Z M44.8438407,196.610649 C43.1035634,191.622671 41.3316799,191.611706 39.5294802,196.577753 C34.2144747,196.680312 33.6565281,198.349636 37.8562855,201.587017 C36.3114508,206.638207 37.7376009,207.680567 42.136026,204.715388 C46.4970396,207.734749 47.9367352,206.70916 46.455113,201.639264 C50.6942169,198.454131 50.1569111,196.778356 44.8438407,196.610649 L44.8438407,196.610649 Z M44.8877024,200.884585 C46.5350961,205.608747 46.0635828,205.94029 42.1437663,202.784183 C38.2600711,205.987377 37.8375798,205.624873 39.4236961,200.852333 C35.4851738,198.469611 35.5574166,197.758149 40.4866972,197.758149 C41.853505,193.218463 42.4953049,193.204918 43.8634028,197.777499 C48.7526918,197.777499 48.9326538,198.453486 44.8877024,200.884585 L44.8877024,200.884585 Z" id="Shape"></path>
        </g>
    </g>
</svg>