<?xml version="1.0" encoding="utf-8"?>
<!-- Generator: Adobe Illustrator 20.1.0, SVG Export Plug-In . SVG Version: 6.00 Build 0)  -->
<svg version="1.0" id="Layer_1" xmlns="http://www.w3.org/2000/svg" xmlns:xlink="http://www.w3.org/1999/xlink" x="0px" y="0px"
	 viewBox="0 0 22 26" style="enable-background:new 0 0 22 26;" xml:space="preserve">
<style type="text/css">
	.st0{fill:#617688;}
</style>
<title>79E33082-FDB7-402A-BBBB-28DDD77E88C6</title>
<desc>Created with sketchtool.</desc>
<g id="Page-1">
	<g id="Desktop:-Super-admin-dashboard---side-menu-_x28_hover_x29_" transform="translate(-32.000000, -118.000000)">
		<path id="Shape" class="st0" d="M38.7,133.3c-0.2-0.2-0.6-0.2-0.8,0l-0.8,0.8l-0.8-0.8c-0.2-0.2-0.6-0.2-0.8,0s-0.2,0.6,0,0.8
			l0.8,0.8l-0.8,0.8c-0.2,0.2-0.2,0.6,0,0.8s0.6,0.2,0.8,0l0.8-0.8l0.8,0.8c0.2,0.2,0.6,0.2,0.8,0s0.2-0.6,0-0.8l-0.8-0.8l0.8-0.8
			C38.9,133.9,38.9,133.5,38.7,133.3L38.7,133.3z M38.7,127.5c-0.2-0.2-0.6-0.2-0.8,0l-0.8,0.8l-0.8-0.8c-0.2-0.2-0.6-0.2-0.8,0
			s-0.2,0.6,0,0.8l0.8,0.8l-0.8,0.8c-0.2,0.2-0.2,0.6,0,0.8s0.6,0.2,0.8,0l0.8-0.8l0.8,0.8c0.2,0.2,0.6,0.2,0.8,0s0.2-0.6,0-0.8
			l-0.8-0.8l0.8-0.8C38.9,128.1,38.9,127.7,38.7,127.5L38.7,127.5z M53.2,120.3h-2.9v-1.2c0-0.6-0.5-1.2-1.1-1.2H48
			c-0.6,0-1.1,0.5-1.1,1.2v1.2h-8v-1.2c0-0.6-0.5-1.2-1.1-1.2h-1.1c-0.6,0-1.1,0.5-1.1,1.2v1.2h-2.9c-0.3,0-0.6,0.3-0.6,0.6V143
			c0,0.3,0.3,0.6,0.6,0.6h20.6c0.3,0,0.6-0.3,0.6-0.6v-22.1C53.8,120.6,53.5,120.3,53.2,120.3L53.2,120.3z M48,119.7
			c0-0.3,0.3-0.6,0.6-0.6s0.6,0.3,0.6,0.6v2.3c0,0.3-0.3,0.6-0.6,0.6S48,122.3,48,122V119.7L48,119.7z M36.6,119.7
			c0-0.3,0.3-0.6,0.6-0.6s0.6,0.3,0.6,0.6v2.3c0,0.3-0.3,0.6-0.6,0.6s-0.6-0.3-0.6-0.6V119.7L36.6,119.7z M52.6,142.5H33.1v-21h2.3
			v1.2c0,0.6,0.5,1.2,1.1,1.2h1.1c0.6,0,1.1-0.5,1.1-1.2v-1.2h8v1.2c0,0.6,0.5,1.2,1.1,1.2h1.1c0.6,0,1.1-0.5,1.1-1.2v-1.2h2.3v21
			H52.6z M49.2,128.5h-8c-0.3,0-0.6,0.3-0.6,0.6s0.3,0.6,0.6,0.6h8c0.3,0,0.6-0.3,0.6-0.6C49.7,128.8,49.5,128.5,49.2,128.5
			L49.2,128.5z M46.9,134.3h-5.7c-0.3,0-0.6,0.3-0.6,0.6s0.3,0.6,0.6,0.6h5.7c0.3,0,0.6-0.3,0.6-0.6S47.2,134.3,46.9,134.3
			L46.9,134.3z"/>
	</g>
</g>
</svg>
